<svg width="124" height="24" viewBox="0 0 124 24" fill="none" xmlns="http://www.w3.org/2000/svg">
<path d="M35.6554 12.5713V10.4094C35.6562 10.1158 35.7734 9.83456 35.9812 9.62726C36.1889 9.41995 36.4703 9.30355 36.7637 9.30355H41.0038V12.5713H35.6554ZM33.1891 1.29874e-05C32.2912 -0.00173894 31.4016 0.173771 30.5715 0.516489C29.7414 0.859208 28.9869 1.36241 28.3513 1.9973C27.7157 2.63218 27.2115 3.38629 26.8674 4.21645C26.5234 5.04661 26.3463 5.93652 26.3463 6.83526V23.97H35.6654V21.122H41.0138V23.9867H50.3329V0.00334726L33.1891 1.29874e-05Z" fill="#1D1D1B"/>
<path d="M9.3124 14.6698H13.5293C13.8288 14.6689 14.1158 14.5492 14.3273 14.3369C14.5388 14.1246 14.6575 13.8371 14.6575 13.5373V10.4494C14.6575 10.1496 14.5388 9.86206 14.3273 9.64976C14.1158 9.43747 13.8288 9.31775 13.5293 9.31687H9.3124V14.6698ZM17.1071 23.9967H0V0.0133422H17.1271C18.9414 0.0142253 20.681 0.73616 21.9636 2.02042C23.2461 3.30468 23.9666 5.04614 23.9666 6.86191V17.1314C23.9666 18.9525 23.244 20.6991 21.9577 21.9871C20.6714 23.2751 18.9267 23.9991 17.1071 24" fill="#1D1D1B"/>
<path d="M52.4297 23.9867L60.2477 9.30688H52.7092V1.76879e-05H76.9654L69.1407 14.6831H76.6925V23.9867H52.4297Z" fill="#1D1D1B"/>
<path d="M77.4913 23.9867L85.3093 9.30688H77.7708V1.76879e-05H102.024L94.2023 14.6831H101.754V23.9867H77.4913Z" fill="#1D1D1B"/>
<path d="M124 14.6831V23.9867H104.134V1.76879e-05H115.523V14.6831H124Z" fill="#1D1D1B"/>
</svg>
