<svg xmlns="http://www.w3.org/2000/svg" xmlns:xlink="http://www.w3.org/1999/xlink">
    <symbol id="ico_logo" viewBox="0 0 124 24">
        <path d="M35.6554 12.5713V10.4094C35.6562 10.1158 35.7734 9.83456 35.9812 9.62726C36.1889 9.41995 36.4703 9.30355 36.7637 9.30355H41.0038V12.5713H35.6554ZM33.1891 1.29874e-05C32.2912 -0.00173894 31.4016 0.173771 30.5715 0.516489C29.7414 0.859208 28.9869 1.36241 28.3513 1.9973C27.7157 2.63218 27.2115 3.38629 26.8674 4.21645C26.5234 5.04661 26.3463 5.93652 26.3463 6.83526V23.97H35.6654V21.122H41.0138V23.9867H50.3329V0.00334726L33.1891 1.29874e-05Z" fill="currentColor"/>
        <path d="M9.3124 14.6698H13.5293C13.8288 14.6689 14.1158 14.5492 14.3273 14.3369C14.5388 14.1246 14.6575 13.8371 14.6575 13.5373V10.4494C14.6575 10.1496 14.5388 9.86206 14.3273 9.64976C14.1158 9.43747 13.8288 9.31775 13.5293 9.31687H9.3124V14.6698ZM17.1071 23.9967H0V0.0133422H17.1271C18.9414 0.0142253 20.681 0.73616 21.9636 2.02042C23.2461 3.30468 23.9666 5.04614 23.9666 6.86191V17.1314C23.9666 18.9525 23.244 20.6991 21.9577 21.9871C20.6714 23.2751 18.9267 23.9991 17.1071 24" fill="currentColor"/>
        <path d="M52.4297 23.9867L60.2477 9.30688H52.7092V1.76879e-05H76.9654L69.1407 14.6831H76.6925V23.9867H52.4297Z" fill="currentColor"/>
        <path d="M77.4913 23.9867L85.3093 9.30688H77.7708V1.76879e-05H102.024L94.2023 14.6831H101.754V23.9867H77.4913Z" fill="currentColor"/>
        <path d="M124 14.6831V23.9867H104.134V1.76879e-05H115.523V14.6831H124Z" fill="currentColor"/>
    </symbol>
    <symbol id="ico_search" viewBox="0 0 16 16">
        <path d="M11.9757 10.8419C12.9088 9.67392 13.4144 8.21406 13.4144 6.69588C13.4144 2.99757 10.401 0 6.70718 0C3.01337 0.0195517 0 3.01707 0 6.71534C0 10.4136 3.01341 13.4112 6.68774 13.4112C8.16523 13.4112 9.62331 12.9052 10.8287 11.9708L14.853 16L16 14.8516L11.9757 10.8419ZM6.68771 11.8151C3.88815 11.8151 1.61358 9.53773 1.61358 6.73481C1.61358 3.93185 3.88819 1.65451 6.68771 1.65451C9.48723 1.65451 11.7618 3.93188 11.7618 6.73481C11.7618 9.53777 9.48723 11.8151 6.68771 11.8151Z" fill="currentColor"/>
    </symbol>
    <symbol id="ico_burger" viewBox="0 0 16 16">
        <path d="M0.5 15.0602V13.3164H15.5V15.0602H0.5Z" fill="currentColor"/>
        <path d="M0.5 8.87266V7.12891H15.5V8.87266H0.5Z" fill="currentColor"/>
        <path d="M0.5 2.68516V0.941406H15.5V2.68516H0.5Z" fill="currentColor"/>
    </symbol>
    <symbol id="ico_arrow_long" viewBox="0 0 24 8">
        <path d="M21.0149 3.2L17.9048 0H20.0759L23.2381 3.2L24 3.96406L23.2381 4.74844V4.8H23.1875L20.0759 8H17.9048L20.9598 4.8H0V3.2H21.0149Z" fill="currentColor"/>
    </symbol>
    <symbol id="ico_arrow_crop" viewBox="0 0 6 8">
        <path d="M3.06152 3.2L0 0H2.13721L6 3.96406L2.13721 8H0L3.04685 4.8L3.06152 4V3.2Z" fill="currentColor"/>
    </symbol>
    <symbol id="ico_vk" viewBox="0 0 32 32">
        <path fill-rule="evenodd" clip-rule="evenodd" d="M25.6927 11.2611C25.8352 10.7858 25.6927 10.4531 25.0273 10.4531H22.8095C22.2392 10.4531 21.9857 10.7541 21.8431 11.0868C21.8431 11.0868 20.7184 13.8433 19.1184 15.6175C18.5956 16.1403 18.3738 16.2987 18.0887 16.2987C17.9461 16.2987 17.7402 16.1403 17.7402 15.665V11.2611C17.7402 10.6908 17.5817 10.4531 17.1065 10.4531H13.6213C13.2728 10.4531 13.051 10.7224 13.051 10.9601C13.051 11.4987 13.8431 11.6254 13.9382 13.1145V16.3779C13.9382 17.0908 13.8114 17.2175 13.5263 17.2175C12.7817 17.2175 10.9441 14.4611 9.86687 11.2927C9.64509 10.7066 9.43915 10.4531 8.86885 10.4531H6.65102C6.01736 10.4531 5.89062 10.7541 5.89062 11.0868C5.89062 11.6729 6.63518 14.5878 9.39162 18.4373C11.2293 21.0671 13.8114 22.4928 16.156 22.4928C17.5659 22.4928 17.7402 22.176 17.7402 21.6374V19.6413C17.7402 19.0076 17.8669 18.8809 18.3263 18.8809C18.659 18.8809 19.2134 19.0393 20.5283 20.3067C22.0332 21.8116 22.2867 22.4928 23.1263 22.4928H25.3441C25.9778 22.4928 26.2946 22.176 26.1045 21.5582C25.8986 20.9403 25.1857 20.0374 24.2352 18.9601C23.7125 18.3423 22.9362 17.6928 22.7144 17.3601C22.3818 16.9324 22.4768 16.7423 22.7144 16.3779C22.7144 16.3621 25.4233 12.5601 25.6927 11.2611V11.2611Z" fill="currentColor"/>
    </symbol>
    <symbol id="ico_tg" viewBox="0 0 32 32">
        <path d="M6.65974 15.8612C6.65974 15.8612 14.6597 12.578 17.4343 11.4219C18.4979 10.9595 22.1048 9.47968 22.1048 9.47968C22.1048 9.47968 23.7696 8.83232 23.6308 10.4045C23.5845 11.052 23.2146 13.3178 22.8447 15.7687C22.2898 19.2369 21.6886 23.0288 21.6886 23.0288C21.6886 23.0288 21.5961 24.0924 20.81 24.2774C20.0239 24.4624 18.729 23.63 18.4979 23.445C18.3129 23.3063 15.0297 21.2254 13.8274 20.208C13.5036 19.9306 13.1337 19.3757 13.8736 18.7283C15.5383 17.2023 17.5267 15.3063 18.729 14.104C19.284 13.5491 19.8389 12.2543 17.5267 13.8265C14.2435 16.0924 11.0066 18.2196 11.0066 18.2196C11.0066 18.2196 10.2667 18.682 8.87939 18.2658C7.49206 17.8497 5.87356 17.2947 5.87356 17.2947C5.87356 17.2947 4.7638 16.6011 6.65974 15.8612Z" fill="currentColor"/>
    </symbol>
    <symbol id="ico_menu_arrow" viewBox="0 0 16 16" fill="none">
        <path fill-rule="evenodd" clip-rule="evenodd" d="M9.71012 8.00001L3.35587 1.37852L4.32287 0.370842L11.6441 8.00001L4.32287 15.6292L3.35587 14.6215L9.71012 8.00001Z" fill="black"/>
        <path fill-rule="evenodd" clip-rule="evenodd" d="M4.32287 7.7258e-07L12 8L4.32287 16L3 14.6215L9.35426 8L3 1.37851L4.32287 7.7258e-07ZM4.32287 0.741669L3.71174 1.37851L10.066 8L3.71174 14.6215L4.32287 15.2583L11.2883 8L4.32287 0.741669Z" fill="black"/>
    </symbol>



    <symbol id="ico_checked" viewBox="0 0 22 22">
        <path d="M7 11L10 14L16 8" stroke="currentColor" stroke-width="1.5" stroke-linecap="square"/>
    </symbol>
    <symbol id="ico_logo" viewBox="0 0 136 60">
        <path d="M53.1894 56.1735L51.7903 51.3672C50.9145 51.4988 50.0288 51.3261 49.2755 50.8938L47.2858 51.292C46.0319 51.543 44.7282 51.3876 43.6429 50.8927L41.1288 51.292C38.8666 51.6514 36.4759 51.1776 34.948 50.0671C33.4202 48.9567 33.0157 47.3989 33.9025 46.0398L35.9733 42.866C35.6016 42.7592 35.2571 42.6352 34.948 42.4948C33.4202 41.8011 33.0157 40.8281 33.9025 39.9792L34.6657 39.2485L27.947 37.8269C25.7354 37.3589 24.1309 36.1463 23.7989 34.6919C23.6798 34.1704 23.7317 33.6497 23.9353 33.1575C23.8777 33.0703 23.832 32.9813 23.7989 32.8908C23.6798 32.5649 23.7317 32.2395 23.9356 31.9319C23.8778 31.8774 23.832 31.8217 23.7989 31.7651C23.6801 31.5622 23.7314 31.3595 23.9337 31.1679C23.8768 31.1342 23.8316 31.0998 23.7989 31.0648C23.4669 30.7103 24.4639 30.3574 26.3766 30.1523L28.7359 29.8993L28.7759 29.8925L31.7046 28.6041L28.4166 27.9742C26.9578 27.6947 26.6489 27.313 27.6181 26.9872C27.8196 26.9195 28.0691 26.8566 28.3589 26.7994C26.9498 26.3536 26.6618 25.7517 27.6181 25.2372C27.8183 25.1295 28.0659 25.0294 28.3534 24.9382C26.949 24.2249 26.663 23.2628 27.6181 22.4401C27.8185 22.2676 28.0664 22.1072 28.3542 21.9611C26.9491 20.8191 26.6629 19.2785 27.6181 17.9612C28.5873 16.6247 30.6693 15.7459 33.0006 15.6893L42.9722 15.4472C43.1051 15.3391 43.2585 15.2348 43.431 15.1354L42.3892 8.86599C42.1463 7.40465 43.2312 5.98172 45.1939 5.18732C46.9787 4.46488 49.2129 4.3743 51.1147 4.9251C52.4096 4.45258 53.9057 4.45007 55.2064 4.92364C56.3531 4.39759 57.6982 4.45648 58.8046 5.10872L61.921 6.9459L65.4277 2.56499C66.4775 1.25345 68.6104 0.425917 70.9425 0.425293L70.9531 0.425296C73.283 0.427186 75.4135 1.2544 76.4625 2.56499L79.9676 6.94389L83.0806 5.10872C84.1885 4.4556 85.5356 4.39742 86.6833 4.9257C87.9845 4.45032 89.4821 4.45187 90.7783 4.92426C92.6794 4.37437 94.9121 4.46522 96.6963 5.18732C98.659 5.98172 99.7439 7.40465 99.501 8.86599L98.4592 15.1353C98.6318 15.2348 98.7851 15.3391 98.9181 15.4472L108.89 15.6893C111.221 15.7459 113.303 16.6246 114.272 17.9612C115.227 19.2786 114.941 20.8191 113.536 21.9611C113.824 22.1072 114.072 22.2676 114.272 22.4401C115.227 23.2628 114.941 24.2249 113.537 24.9382C113.824 25.0294 114.072 25.1295 114.272 25.2372C115.228 25.7518 114.94 26.3536 113.531 26.7994C113.821 26.8566 114.071 26.9195 114.272 26.9872C115.241 27.313 114.932 27.6947 113.474 27.9742L110.186 28.6041L113.114 29.8925L113.154 29.8993L115.514 30.1523C117.426 30.3574 118.423 30.7103 118.091 31.0648C118.059 31.0998 118.013 31.1342 117.956 31.1679C118.159 31.3595 118.21 31.5622 118.091 31.7651C118.058 31.8217 118.012 31.8774 117.955 31.9319C118.158 32.2395 118.21 32.5649 118.091 32.8908C118.058 32.9813 118.013 33.0703 117.955 33.1575C118.159 33.6497 118.21 34.1704 118.091 34.6919C117.759 36.1463 116.155 37.3589 113.943 37.8269L107.224 39.2485L107.988 39.9792C108.874 40.8281 108.47 41.8012 106.942 42.4948C106.633 42.6352 106.289 42.7593 105.917 42.866L107.988 46.0398C108.874 47.3989 108.47 48.9566 106.942 50.0671C105.414 51.1776 103.024 51.6514 100.761 51.292L98.2511 50.8933C97.1661 51.3877 95.863 51.5429 94.6096 51.292L92.6123 50.8922C91.8598 51.3249 90.975 51.4983 90.0997 51.3679L88.7008 56.1735C88.28 57.6188 86.6026 58.7916 84.364 59.2056C83.3418 59.3946 82.2822 59.4107 81.2807 59.2702C80.5675 59.3964 79.8392 59.3925 79.1461 59.2696C77.8081 59.5688 76.4027 59.1415 75.457 58.1315L71.1394 53.5201C71.089 53.4662 71.0187 53.4354 70.9451 53.4348C70.9374 53.4348 70.9298 53.4351 70.9222 53.4356C70.8552 53.4407 70.7923 53.4707 70.7461 53.5201L66.4282 58.1315C65.4836 59.1404 64.0802 59.5679 62.7436 59.2706C62.0514 59.3927 61.3243 59.396 60.6123 59.2698C59.61 59.4107 58.5494 59.3948 57.5262 59.2056C55.2876 58.7916 53.6101 57.6188 53.1894 56.1735Z"
              fill="#FF8300"/>
        <path d="M42.6656 17.3346L21.6639 38.2772L22.3401 53.0874L17.7574 54.5054L17.3213 40.687L4.00119 58.7619L0 60L13.3232 26.4136L24.4043 22.9849L18.6214 37.8441L30.6389 21.0555L42.6656 17.3346ZM44.115 27.4246C45.1076 27.1174 45.9475 27.0165 46.6348 27.1217C47.3238 27.2217 50.1813 26.7792 55.2075 25.7944C55.5206 26.2631 55.6396 26.9135 55.5644 27.7454C55.4858 28.5738 55.1804 29.5681 54.6485 30.7284L52.0221 38.763L35.8311 43.7729C35.7772 43.9018 35.7383 44.005 35.7143 44.0825C35.6903 44.1601 35.6671 44.235 35.6447 44.3074C35.4288 45.0053 35.4781 45.5183 35.7926 45.8463C36.1123 46.1728 36.665 46.2144 37.4508 45.9713C38.1694 45.749 38.7539 45.4535 39.2045 45.085C39.6602 44.715 40.001 44.3688 40.227 44.0464L51.0133 40.7089C50.7218 41.2432 47.9868 42.5359 42.8086 44.5869C42.3397 45.1808 41.7844 45.7592 41.1427 46.3224C40.5061 46.884 39.7945 47.401 39.0079 47.8734C38.2214 48.3459 37.3576 48.7277 36.4168 49.0188C35.4863 49.3067 34.6885 49.4227 34.0233 49.3667C33.3529 49.3124 32.8323 49.1065 32.4614 48.7492C32.0921 48.3866 31.8735 47.877 31.8056 47.2202C27.0283 48.0206 24.7807 47.9659 25.0618 47.0561C26.8773 41.1888 30.4605 36.981 35.8115 34.4323C36.4462 33.3477 37.1925 32.3408 38.0503 31.4116C38.903 30.4839 39.8431 29.6742 40.8705 28.9823C41.8964 28.2956 42.9778 27.7765 44.115 27.4246ZM42.9819 30.4747C42.284 30.6906 41.6065 31.0826 40.9493 31.6506C40.2936 32.2134 39.7325 32.962 39.2657 33.8965L44.6937 32.2169C44.9678 31.4216 44.9514 30.8704 44.6444 30.5634C44.3374 30.2564 43.7832 30.2268 42.9819 30.4747ZM82.6121 4.66543L78.0318 16.9299C78.9053 16.7204 79.6546 16.6709 80.2795 16.7814C80.9112 16.8851 81.4059 17.1293 81.7636 17.5141C82.1146 17.9057 82.3153 18.4279 82.3657 19.0808C82.4145 19.7388 82.3013 20.5124 82.0262 21.4016C81.6647 22.5699 80.4 26.0604 78.232 31.8732C77.5194 32.9679 76.6826 33.9724 75.7219 34.8867C74.7612 35.801 73.7047 36.6094 72.5524 37.3119C71.4037 38.0179 70.2013 38.5652 68.9451 38.954L66.6817 43.8894L55.8414 47.2438L58.0971 42.3107C57.2303 42.5134 56.4879 42.5562 55.8697 42.439C55.2515 42.3217 54.7636 42.0707 54.4059 41.6859C54.0549 41.2943 53.8526 40.7772 53.799 40.1347C53.747 39.487 54.5888 36.3588 56.3244 30.7497C56.6859 29.5814 57.2196 28.4533 57.9254 27.3655C58.6365 26.276 59.4681 25.2731 60.42 24.3568C61.3772 23.4389 62.4301 22.627 63.5788 21.9209C64.7311 21.2185 65.9353 20.6729 67.1914 20.2842L78.836 5.83402L82.6121 4.66543ZM59.6693 38.9282L65.6139 23.6825C65.0246 23.8648 64.44 24.1602 63.8602 24.5687C63.2855 24.9756 62.7491 25.4478 62.2509 25.9852C61.7543 26.5175 61.3204 27.0888 60.9493 27.6992C60.5781 28.3095 60.2973 28.9223 60.107 29.5374C58.373 35.1411 57.6545 38.166 57.9513 38.6115C58.2481 39.0573 58.8208 39.1628 59.6693 38.9282ZM78.2501 22.5909C78.5188 21.7224 78.4988 21.0694 78.19 20.6321C77.8797 20.1999 77.3036 20.0977 76.4619 20.3255L70.5095 35.5737C71.1243 35.3694 71.7226 35.0675 72.3044 34.6677C72.8878 34.2628 73.4252 33.7951 73.9166 33.2643C74.4029 32.7352 74.8332 32.1603 75.2075 31.5396C77.0407 26.2044 78.0549 23.2214 78.2501 22.5909ZM103.653 9.28937L114.393 5.96622L105.635 27.3135L94.8177 30.6607L100.77 15.4124L89.63 32.2661L78.8673 35.5965L94.7281 12.0511L98.4424 10.9018L94.6884 19.068L103.653 9.28937ZM131.938 0.250009C132.672 0.0228706 133.314 -0.0495003 133.864 0.0329064C134.418 0.113712 134.85 0.342389 135.159 0.718956C135.466 1.10068 135.638 1.62475 135.675 2.29113C135.717 2.9559 135.592 3.76134 135.299 4.70735C134.976 5.7516 133.78 9.16926 131.713 14.9606C131.105 16.032 130.398 17.0268 129.59 17.9452C128.786 18.8672 127.892 19.686 126.909 20.4016C125.931 21.1157 124.909 21.6374 123.844 21.967C118.189 23.7169 115.085 24.5115 114.531 24.3509C113.983 24.1886 113.643 23.8894 113.512 23.4533L110.298 30.3938L106.468 31.5791L117.673 4.95193L121.341 3.81701L120.76 5.08367C121.278 4.5259 121.878 4.01287 122.561 3.54458C127.96 1.61234 131.085 0.513941 131.938 0.250009ZM117.221 21.0295C122.509 19.3931 125.413 18.3751 125.935 17.9755C126.449 17.5826 126.922 17.1253 127.355 16.6035C127.782 16.0832 128.887 13.1635 130.668 7.84398C130.991 7.23928 131.244 6.63968 131.428 6.04523C131.694 5.18709 131.674 4.55764 131.368 4.15681C131.067 3.7544 130.534 3.67157 129.769 3.9083C124.211 5.62787 121.042 6.87505 120.26 7.64996C119.471 8.43158 118.811 9.40261 118.279 10.5628L118.208 10.7251C117.893 11.4256 116.973 14.3676 115.449 19.551C115.383 20.0201 115.417 20.3858 115.551 20.6482C115.681 20.9071 115.896 21.0649 116.197 21.1215C116.497 21.1782 116.838 21.1478 117.221 21.0295Z"
              fill="currentColor"/>
    </symbol>
    <symbol id="ico_arrow" viewBox="0 0 24 24">
        <path d="M4.9585 15.25L11.4585 8.75L17.9585 15.25"/>
    </symbol>
    <symbol id="ico_close" viewBox="0 0 24 24">
        <path d="M4 4L20 20"></path>
        <path d="M4 20L20 4"></path>
    </symbol>
    <symbol id="ico_telegram" viewBox="0 0 32 32">
        <path d="M1.65821 13.6888L29.7068 2.87429C31.0085 2.40399 32.1479 3.18935 31.7261 5.15783L26.9503 27.6573C26.5964 29.2525 25.6486 29.6404 24.3225 28.8888L17.0497 23.5287L13.5417 26.9083C13.1539 27.2962 12.8267 27.6234 12.0752 27.6234L12.5916 20.2223L26.0702 8.0452C26.6569 7.52874 25.9393 7.23803 25.1661 7.75197L8.50922 18.239L1.32851 15.999C-0.230275 15.5045 -0.264215 14.4404 1.65821 13.6888Z"
              fill="currentcolor"/>
    </symbol>
    <symbol id="ico_instagram" viewBox="0 0 32 32">
        <path d="M31.6611 9.53217C31.6434 8.20643 31.3952 6.89388 30.9277 5.65322C30.5222 4.60673 29.9028 3.65633 29.1093 2.86274C28.3157 2.06915 27.3653 1.44983 26.3188 1.04434C25.0941 0.584606 23.8002 0.336018 22.4923 0.309164C20.8084 0.233896 20.2745 0.212891 16 0.212891C11.7255 0.212891 11.1776 0.212891 9.50592 0.309164C8.19863 0.336215 6.90539 0.584801 5.68123 1.04434C4.63458 1.44955 3.68403 2.06877 2.89041 2.86239C2.09679 3.65602 1.47756 4.60656 1.07236 5.65322C0.611701 6.877 0.363651 8.17053 0.33893 9.4779C0.263661 11.1636 0.240906 11.6974 0.240906 15.972C0.240906 20.2465 0.240906 20.7927 0.33893 22.4661C0.365186 23.7754 0.611996 25.0672 1.07236 26.2943C1.47824 27.3406 2.09793 28.2908 2.89182 29.084C3.6857 29.8773 4.63634 30.4963 5.68298 30.9014C6.90379 31.3796 8.19725 31.646 9.50767 31.6891C11.1933 31.7643 11.7272 31.7871 16.0018 31.7871C20.2763 31.7871 20.8242 31.7871 22.4958 31.6891C23.8037 31.6633 25.0976 31.4153 26.3223 30.9556C27.3685 30.5497 28.3187 29.9302 29.1122 29.1367C29.9057 28.3431 30.5252 27.393 30.9312 26.3468C31.3915 25.1215 31.6383 23.8297 31.6646 22.5186C31.7398 20.8347 31.7626 20.3008 31.7626 16.0245C31.7591 11.75 31.7591 11.2073 31.6611 9.53217V9.53217ZM15.9895 24.0555C11.5189 24.0555 7.89727 20.4338 7.89727 15.9632C7.89727 11.4926 11.5189 7.87101 15.9895 7.87101C18.1357 7.87101 20.194 8.72358 21.7116 10.2412C23.2292 11.7588 24.0817 13.817 24.0817 15.9632C24.0817 18.1094 23.2292 20.1677 21.7116 21.6853C20.194 23.2029 18.1357 24.0555 15.9895 24.0555V24.0555ZM24.4038 9.45865C24.1559 9.45888 23.9105 9.41023 23.6814 9.31548C23.4524 9.22073 23.2443 9.08175 23.069 8.90648C22.8937 8.73122 22.7548 8.52311 22.66 8.29407C22.5653 8.06503 22.5166 7.81955 22.5168 7.57169C22.5168 7.324 22.5656 7.07874 22.6604 6.84991C22.7552 6.62108 22.8941 6.41316 23.0693 6.23802C23.2444 6.06288 23.4523 5.92396 23.6812 5.82917C23.91 5.73439 24.1552 5.6856 24.4029 5.6856C24.6506 5.6856 24.8959 5.73439 25.1247 5.82917C25.3535 5.92396 25.5615 6.06288 25.7366 6.23802C25.9117 6.41316 26.0507 6.62108 26.1454 6.84991C26.2402 7.07874 26.289 7.324 26.289 7.57169C26.289 8.61494 25.4453 9.45865 24.4038 9.45865Z"
              fill="currentcolor"/>
        <path d="M15.9895 21.2198C18.8926 21.2198 21.246 18.8664 21.246 15.9633C21.246 13.0602 18.8926 10.7067 15.9895 10.7067C13.0864 10.7067 10.733 13.0602 10.733 15.9633C10.733 18.8664 13.0864 21.2198 15.9895 21.2198Z"
              fill="currentcolor"/>
    </symbol>
    <symbol id="ico_vk" viewBox="0 0 32 32">
        <path fill-rule="evenodd" clip-rule="evenodd"
              d="M17.5685 25.2543C17.5685 25.2543 18.1469 25.1901 18.4408 24.8642C18.7134 24.5679 18.7015 24.0049 18.7015 24.0049C18.7015 24.0049 18.6684 21.3826 19.8583 20.995C21.0316 20.6147 22.5392 23.5308 24.1392 24.6543C25.3481 25.5012 26.2654 25.316 26.2654 25.316L30.5392 25.2543C30.5392 25.2543 32.7745 25.1136 31.7149 23.3185C31.6272 23.1703 31.0963 21.9851 28.5386 19.5579C25.8554 17.0146 26.2157 17.427 29.4441 13.0269C31.4092 10.3479 32.1938 8.71326 31.9496 8.01448C31.7149 7.34533 30.269 7.52065 30.269 7.52065L25.4571 7.55275C25.4571 7.55275 25.1016 7.50336 24.8361 7.66386C24.5777 7.82189 24.4094 8.19226 24.4094 8.19226C24.4094 8.19226 23.6509 10.2664 22.634 12.0294C20.4912 15.748 19.6355 15.9455 19.2847 15.7134C18.4692 15.1751 18.6731 13.5504 18.6731 12.3973C18.6731 8.79227 19.2088 7.28607 17.6325 6.89841C17.111 6.77002 16.7246 6.68606 15.3877 6.67125C13.6692 6.65149 12.2162 6.67619 11.3937 7.08854C10.8485 7.36015 10.4218 7.97251 10.6825 8.00954C11.0002 8.05152 11.7208 8.20708 12.1024 8.73795C12.5954 9.42438 12.5765 10.9652 12.5765 10.9652C12.5765 10.9652 12.8609 15.2072 11.9151 15.7356C11.268 16.0961 10.3791 15.3578 8.4686 11.9825C7.82046 10.8103 7.2464 9.59535 6.75007 8.34535C6.75007 8.34535 6.60785 7.98732 6.35185 7.79472C6.0437 7.56262 5.61466 7.49102 5.61466 7.49102L1.04219 7.52065C1.04219 7.52065 0.354782 7.5404 0.103522 7.84658C-0.119294 8.11819 0.0869294 8.67869 0.0869294 8.67869C0.0869294 8.67869 3.66621 17.2418 7.71956 21.5579C11.4363 25.5136 15.6556 25.2543 15.6556 25.2543H17.5685Z"
              fill="currentcolor"/>
    </symbol>
</svg>